<?xml version="1.0" encoding="UTF-8" standalone="no"?>
<svg width="64px" height="64px" viewBox="0 0 64 64" version="1.1" xmlns="http://www.w3.org/2000/svg" xmlns:xlink="http://www.w3.org/1999/xlink" xmlns:sketch="http://www.bohemiancoding.com/sketch/ns">
    <!-- Generator: Sketch 3.3.3 (12072) - http://www.bohemiancoding.com/sketch -->
    <title>PricingTable_Standard</title>
    <desc>Created with Sketch.</desc>
    <defs></defs>
    <g id="icons" stroke="none" stroke-width="1" fill="none" fill-rule="evenodd" sketch:type="MSPage">
        <g id="PricingTable_Standard" sketch:type="MSArtboardGroup" fill="#C9CDCF">
            <g sketch:type="MSLayerGroup" transform="translate(11.000000, 17.000000)" id="Shape">
                <path d="M30,3 L30,27 L43,27 L43,3 L30,3 L30,3 Z M32,25 L32,11 L41,11 L41,25 L32,25 L32,25 Z M41,9 L32,9 L32,5 L41,5 L41,9 L41,9 Z M0,3 L0,27 L13,27 L13,3 L0,3 L0,3 Z M2,25 L2,11 L11,11 L11,25 L2,25 L2,25 Z M11,9 L2,9 L2,5 L11,5 L11,9 L11,9 Z M15,0 L15,30 L28,30 L28,0 L15,0 L15,0 Z M17,28 L17,8 L26,8 L26,28 L17,28 L17,28 Z M26,6 L17,6 L17,2 L26,2 L26,6 L26,6 Z" sketch:type="MSShapeGroup"></path>
            </g>
        </g>
    </g>
</svg>