<?xml version="1.0" encoding="utf-8"?>
<!-- Generator: Adobe Illustrator 18.1.1, SVG Export Plug-In . SVG Version: 6.00 Build 0)  -->
<svg version="1.1" id="Layer_1" xmlns="http://www.w3.org/2000/svg" xmlns:xlink="http://www.w3.org/1999/xlink" x="0px" y="0px"
	 width="64.6px" height="34.7px" viewBox="0 0 64.6 34.7" enable-background="new 0 0 64.6 34.7" xml:space="preserve">
<g>
	<path fill="#58595B" d="M22.9,34.7H0V0h22.9V34.7z M2,32.7h18.9V2H2V32.7z"/>
	<path fill="#58595B" d="M43.7,34.7H20.9V0h22.9V34.7z M22.9,32.7h18.9V2H22.9V32.7z"/>
	<path fill="#58595B" d="M64.6,34.7H41.7V0h22.9V34.7z M43.7,32.7h18.9V2H43.7V32.7z"/>
	<g>
		<path fill="#58595B" d="M32,26.8c-1.6-0.1-2.8-0.7-3.6-1.6l0.8-1c0.6,0.7,1.6,1.3,2.8,1.5v-3.8c-1.6-0.4-3.2-1-3.2-2.9
			c0-1.6,1.4-2.8,3.2-2.9v-1.4h0.9v1.4c1.3,0.1,2.3,0.6,3.1,1.4l-0.8,0.9c-0.6-0.7-1.4-1.1-2.3-1.2v3.4c1.6,0.5,3.3,1.1,3.3,3.1
			c0,1.4-0.9,2.8-3.3,3v1.4H32V26.8z M32,20.4v-3.2c-1.1,0.1-1.9,0.7-1.9,1.6C30.1,19.8,30.9,20.1,32,20.4z M32.9,22.1v3.5
			c1.5-0.2,2-1,2-1.8C34.9,22.9,34,22.5,32.9,22.1z"/>
	</g>
	<g>
		<path fill="#58595B" d="M11.1,26.8c-1.6-0.1-2.8-0.7-3.6-1.6l0.8-1c0.6,0.7,1.6,1.3,2.8,1.5v-3.8c-1.6-0.4-3.2-1-3.2-2.9
			c0-1.6,1.4-2.8,3.2-2.9v-1.4H12v1.4c1.3,0.1,2.3,0.6,3.1,1.4l-0.8,0.9c-0.6-0.7-1.4-1.1-2.3-1.2v3.4c1.6,0.5,3.3,1.1,3.3,3.1
			c0,1.4-0.9,2.8-3.3,3v1.4h-0.9V26.8z M11.1,20.4v-3.2C10,17.3,9.2,18,9.2,18.9C9.2,19.8,10,20.1,11.1,20.4z M12,22.1v3.5
			c1.5-0.2,2-1,2-1.8C14,22.9,13.1,22.5,12,22.1z"/>
	</g>
	<g>
		<path fill="#58595B" d="M52.8,26.8c-1.6-0.1-2.8-0.7-3.6-1.6l0.8-1c0.6,0.7,1.6,1.3,2.8,1.5v-3.8c-1.6-0.4-3.2-1-3.2-2.9
			c0-1.6,1.4-2.8,3.2-2.9v-1.4h0.9v1.4c1.3,0.1,2.3,0.6,3.1,1.4l-0.8,0.9c-0.6-0.7-1.4-1.1-2.3-1.2v3.4c1.6,0.5,3.3,1.1,3.3,3.1
			c0,1.4-0.9,2.8-3.3,3v1.4h-0.9V26.8z M52.8,20.4v-3.2c-1.1,0.1-1.9,0.7-1.9,1.6C50.9,19.8,51.8,20.1,52.8,20.4z M53.8,22.1v3.5
			c1.5-0.2,2-1,2-1.8C55.7,22.9,54.9,22.5,53.8,22.1z"/>
	</g>
	<rect x="1" y="8.2" fill="#58595B" width="62.6" height="2"/>
</g>
<g>
</g>
<g>
</g>
<g>
</g>
<g>
</g>
<g>
</g>
<g>
</g>
</svg>
